<svg width="67" height="52" viewBox="0 0 67 52" fill="none" xmlns="http://www.w3.org/2000/svg">
<rect width="67" height="52" rx="7" fill="#FBFBFB"/>
<g clip-path="url(#clip0_71_1143)">
<path d="M41.0015 8C31.0574 8 23 16.0588 23 26.0035C23 35.9422 31.0574 44.0005 41.0015 44.0005C50.947 44.0005 59 35.9422 59 26.0035C59 16.0583 50.947 8 41.0015 8ZM48.873 31.2678C49.5584 31.9755 49.3467 33.2944 48.3964 34.2158C47.4466 35.1372 46.1216 35.3136 45.4348 34.6059L40.9483 29.9866L36.3272 34.4727C35.6209 35.158 34.3019 34.9433 33.3804 33.9951C32.459 33.0469 32.284 31.722 32.9903 31.0352L37.6114 26.5491L33.125 21.9284C32.4396 21.2222 32.6548 19.9018 33.6031 18.9804C34.5499 18.0605 35.8779 17.8851 36.5618 18.5903L41.0482 23.2105L45.6708 18.7264C46.3786 18.0396 47.6976 18.2543 48.6176 19.2025C49.5405 20.1507 49.714 21.4771 49.0077 22.1639L44.3881 26.6485L48.873 31.2678Z" fill="#E63946"/>
</g>
<defs>
<clipPath id="clip0_71_1143">
<rect width="36" height="36" fill="white" transform="translate(23 8)"/>
</clipPath>
</defs>
</svg>
