<svg width="61" height="61" viewBox="0 0 61 61" fill="none" xmlns="http://www.w3.org/2000/svg">
<g clip-path="url(#clip0_88_1672)">
<path d="M59.595 52.861L37.094 30.359L59.473 7.97999C61.298 6.15399 61.298 3.19399 59.473 1.36899C57.647 -0.456006 54.688 -0.456006 52.862 1.36899L30.483 23.748L8.10501 1.36899C6.27901 -0.456006 3.32001 -0.456006 1.49401 1.36899C-0.331988 3.19499 -0.331988 6.15499 1.49401 7.97999L23.872 30.359L1.36901 52.861C-0.456988 54.687 -0.456988 57.646 1.36901 59.472C2.28201 60.385 3.47801 60.841 4.67501 60.841C5.87201 60.841 7.06801 60.385 7.98101 59.472L30.483 36.97L52.984 59.472C53.897 60.385 55.093 60.841 56.29 60.841C57.487 60.841 58.683 60.385 59.596 59.472C61.42 57.647 61.42 54.687 59.595 52.861Z" fill="#1D3557"/>
</g>
<defs>
<clipPath id="clip0_88_1672">
<rect width="60.963" height="60.842" fill="white"/>
</clipPath>
</defs>
</svg>
