<svg width="15" height="15" viewBox="0 0 15 15" fill="none" xmlns="http://www.w3.org/2000/svg">
<path d="M7.5 0C11.64 0 15 3.36 15 7.5C15 11.64 11.64 15 7.5 15C3.36 15 0 11.64 0 7.5C0 3.36 3.36 0 7.5 0ZM7.5 1.5C4.185 1.5 1.5 4.185 1.5 7.5C1.5 10.815 4.185 13.5 7.5 13.5C10.815 13.5 13.5 10.815 13.5 7.5C13.5 4.185 10.815 1.5 7.5 1.5ZM7.5 3.75C8.865 3.75 10.0597 4.47975 10.716 5.571L9.4305 6.34275C9.22819 6.00543 8.941 5.72704 8.59754 5.53533C8.25409 5.34363 7.86639 5.24531 7.47308 5.25017C7.07978 5.25504 6.69463 5.36292 6.35602 5.56307C6.01742 5.76321 5.7372 6.04862 5.5433 6.39084C5.3494 6.73306 5.24861 7.12013 5.25096 7.51346C5.25331 7.90678 5.35873 8.29262 5.55671 8.6325C5.75468 8.97237 6.0383 9.25441 6.37927 9.45049C6.72025 9.64657 7.10666 9.74984 7.5 9.75C7.8886 9.75025 8.27063 9.64979 8.60883 9.45841C8.94704 9.26703 9.22987 8.99126 9.42975 8.658L10.716 9.429C10.2945 10.133 9.65373 10.6792 8.89194 10.984C8.13015 11.2888 7.28941 11.3353 6.49867 11.1163C5.70793 10.8973 5.01085 10.425 4.51435 9.77178C4.01785 9.11856 3.74934 8.3205 3.75 7.5C3.75 5.43 5.43 3.75 7.5 3.75Z" fill="#E63946"/>
</svg>
