<svg width="24" height="24" viewBox="0 0 24 24" fill="none" xmlns="http://www.w3.org/2000/svg">
<path d="M9.00003 15H12.81L21.51 6.31001C21.761 6.05926 21.9601 5.76151 22.0959 5.43378C22.2317 5.10605 22.3017 4.75477 22.3017 4.40001C22.3017 4.04524 22.2317 3.69396 22.0959 3.36623C21.9601 3.0385 21.761 2.74075 21.51 2.49001C20.995 1.99968 20.3111 1.7262 19.6 1.7262C18.8889 1.7262 18.2051 1.99968 17.69 2.49001L9.00003 11.19V15ZM11 12L19.11 3.90001C19.1745 3.83223 19.252 3.77827 19.338 3.74139C19.4239 3.70452 19.5165 3.68551 19.61 3.68551C19.7036 3.68551 19.7961 3.70452 19.8821 3.74139C19.968 3.77827 20.0456 3.83223 20.11 3.90001V3.90001C20.1791 3.96369 20.2343 4.04099 20.272 4.12705C20.3097 4.21311 20.3292 4.30605 20.3292 4.40001C20.3292 4.49396 20.3097 4.5869 20.272 4.67296C20.2343 4.75902 20.1791 4.83633 20.11 4.90001L12 13H11V12Z" fill="white"/>
<path d="M20 19.07C20 19.3167 19.902 19.5532 19.7276 19.7276C19.5532 19.902 19.3167 20 19.07 20H4.93003C4.68338 20 4.44683 19.902 4.27242 19.7276C4.09801 19.5532 4.00003 19.3167 4.00003 19.07V4.93C4.00003 4.68335 4.09801 4.4468 4.27242 4.27239C4.44683 4.09798 4.68338 4 4.93003 4H15V2H4.93003C4.15295 2 3.40769 2.3087 2.85821 2.85818C2.30873 3.40766 2.00003 4.15292 2.00003 4.93V19.07C2.00003 19.8471 2.30873 20.5923 2.85821 21.1418C3.40769 21.6913 4.15295 22 4.93003 22H19.07C19.8471 22 20.5924 21.6913 21.1419 21.1418C21.6913 20.5923 22 19.8471 22 19.07V10H20V19.07Z" fill="white"/>
</svg>
