<svg width="50" height="50" viewBox="0 0 50 50" fill="none" xmlns="http://www.w3.org/2000/svg">
<path d="M18.75 31.25H26.6875L44.8125 13.1458C45.3353 12.6234 45.7501 12.0031 46.0331 11.3204C46.3161 10.6376 46.4617 9.90575 46.4617 9.16666C46.4617 8.42757 46.3161 7.69573 46.0331 7.01296C45.7501 6.33019 45.3353 5.70988 44.8125 5.18749C43.7395 4.16597 42.3148 3.59622 40.8333 3.59622C39.3519 3.59622 37.9271 4.16597 36.8542 5.18749L18.75 23.3125V31.25ZM22.9167 25L39.8125 8.12499C39.9468 7.98379 40.1084 7.87137 40.2874 7.79455C40.4665 7.71773 40.6593 7.67812 40.8542 7.67812C41.049 7.67812 41.2418 7.71773 41.4209 7.79455C41.6 7.87137 41.7616 7.98379 41.8958 8.12499V8.12499C42.0398 8.25766 42.1546 8.41872 42.2332 8.598C42.3118 8.77729 42.3524 8.97091 42.3524 9.16666C42.3524 9.36241 42.3118 9.55603 42.2332 9.73532C42.1546 9.9146 42.0398 10.0757 41.8958 10.2083L25 27.0833H22.9167V25Z" fill="#333333"/>
<path d="M41.6668 39.7292C41.6668 40.243 41.4626 40.7358 41.0993 41.0992C40.7359 41.4625 40.2431 41.6667 39.7293 41.6667H10.2709C9.75706 41.6667 9.26425 41.4625 8.9009 41.0992C8.53754 40.7358 8.33342 40.243 8.33342 39.7292V10.2708C8.33342 9.75697 8.53754 9.26416 8.9009 8.9008C9.26425 8.53745 9.75706 8.33332 10.2709 8.33332H31.2501V4.16666H10.2709C8.65199 4.16666 7.09937 4.80977 5.95462 5.95453C4.80986 7.09928 4.16675 8.6519 4.16675 10.2708V39.7292C4.16675 41.3481 4.80986 42.9007 5.95462 44.0455C7.09937 45.1902 8.65199 45.8333 10.2709 45.8333H39.7293C41.3482 45.8333 42.9008 45.1902 44.0455 44.0455C45.1903 42.9007 45.8334 41.3481 45.8334 39.7292V20.8333H41.6668V39.7292Z" fill="#333333"/>
</svg>
