<svg width="24" height="24" viewBox="0 0 24 24" fill="none" xmlns="http://www.w3.org/2000/svg">
<path d="M9 15H12.81L21.51 6.31001C21.761 6.05926 21.96 5.76151 22.0959 5.43378C22.2317 5.10605 22.3016 4.75477 22.3016 4.40001C22.3016 4.04524 22.2317 3.69396 22.0959 3.36623C21.96 3.0385 21.761 2.74075 21.51 2.49001C20.995 1.99968 20.3111 1.7262 19.6 1.7262C18.8889 1.7262 18.205 1.99968 17.69 2.49001L9 11.19V15ZM11 12L19.11 3.90001C19.1745 3.83223 19.252 3.77827 19.338 3.74139C19.4239 3.70452 19.5165 3.68551 19.61 3.68551C19.7035 3.68551 19.7961 3.70452 19.882 3.74139C19.968 3.77827 20.0455 3.83223 20.11 3.90001V3.90001C20.1791 3.96369 20.2342 4.04099 20.2719 4.12705C20.3097 4.21311 20.3291 4.30605 20.3291 4.40001C20.3291 4.49396 20.3097 4.5869 20.2719 4.67296C20.2342 4.75902 20.1791 4.83633 20.11 4.90001L12 13H11V12Z" fill="#333333"/>
<path d="M20 19.07C20 19.3167 19.902 19.5532 19.7276 19.7276C19.5532 19.902 19.3167 20 19.07 20H4.93C4.68335 20 4.4468 19.902 4.27239 19.7276C4.09798 19.5532 4 19.3167 4 19.07V4.93C4 4.68335 4.09798 4.4468 4.27239 4.27239C4.4468 4.09798 4.68335 4 4.93 4H15V2H4.93C4.15292 2 3.40766 2.3087 2.85818 2.85818C2.3087 3.40766 2 4.15292 2 4.93V19.07C2 19.8471 2.3087 20.5923 2.85818 21.1418C3.40766 21.6913 4.15292 22 4.93 22H19.07C19.8471 22 20.5923 21.6913 21.1418 21.1418C21.6913 20.5923 22 19.8471 22 19.07V10H20V19.07Z" fill="#333333"/>
</svg>
