<svg width="18" height="18" viewBox="0 0 18 18" fill="none" xmlns="http://www.w3.org/2000/svg">
<path d="M16 0H2C0.89543 0 0 0.89543 0 2V16C0 17.1046 0.89543 18 2 18H16C17.1046 18 18 17.1046 18 16V2C18 0.89543 17.1046 0 16 0Z" fill="#4488EE"/>
<path fill-rule="evenodd" clip-rule="evenodd" d="M15.116 3.35433V5.68195L13.7346 5.68555C12.6517 5.68555 12.443 6.2 12.443 6.95189V8.61756H15.0225L14.6879 11.2222H12.443V18H9.75243V11.2222H7.5V8.61756H9.75243V6.69646C9.75243 4.46598 11.112 3.25 13.105 3.25C14.0551 3.25 14.875 3.32195 15.116 3.35433Z" fill="white"/>
</svg>
