<svg width="292" height="244" viewBox="0 0 292 244" fill="none" xmlns="http://www.w3.org/2000/svg">
<g clip-path="url(#clip0_5_22)">
<path d="M237.181 230.496H59.9349L60.0148 211.687C60.2171 164.095 98.1716 124.878 145.717 124.069C146.23 124.06 146.745 124.056 147.26 124.056H147.26C157.959 124.048 168.572 125.956 178.599 129.691C212.241 142.23 234.821 174.09 236.323 209.989L237.181 230.496Z" fill="#E63946"/>
<path d="M292 230.496H0V231.228H292V230.496Z" fill="#FBFBFB"/>
<path d="M145.557 146.371L153.367 152.056L161.177 218.854H179.637L173.247 142.817L147.687 132.869L145.557 146.371Z" fill="#23222F"/>
<path d="M112.896 125.052C112.896 125.052 110.766 149.213 119.286 149.924C127.806 150.634 160.467 142.818 160.467 142.818L176.087 198.246L199.517 186.166C199.517 186.166 185.317 123.631 176.797 120.078C168.277 116.524 139.877 109.418 139.877 109.418L119.286 112.971L112.896 125.052Z" fill="#23222F"/>
<path d="M164.017 217.433C164.017 217.433 159.757 233.777 162.597 235.199C164.305 236.053 165.964 237.002 167.567 238.041V235.199C167.567 235.199 171.117 238.752 171.117 241.594C171.117 244.437 190.287 245.147 190.287 241.594C190.287 238.041 189.577 233.777 186.027 231.646C182.477 229.514 178.217 217.433 178.217 217.433H164.017Z" fill="#23222F"/>
<path d="M184.607 188.298L186.027 201.799L190.997 210.327L203.067 196.825L193.837 181.902L184.607 188.298Z" fill="#3F3D56"/>
<path d="M195.967 201.799C195.967 201.799 198.581 192.852 201.179 193.773C203.777 194.693 213.717 203.931 213.717 203.931L220.817 208.195C220.817 208.195 235.017 209.616 230.757 213.88C226.497 218.144 210.877 223.829 203.777 220.986C196.677 218.144 195.257 217.433 195.257 217.433L193.127 218.854L184.607 216.722L186.027 201.799C186.027 201.799 188.157 208.195 195.967 201.799Z" fill="#23222F"/>
<path d="M137.037 36.224C146.055 36.224 153.367 28.9064 153.367 19.8796C153.367 10.8529 146.055 3.53528 137.037 3.53528C128.018 3.53528 120.706 10.8529 120.706 19.8796C120.706 28.9064 128.018 36.224 137.037 36.224Z" fill="#F5C7CE"/>
<path d="M126.741 29.473C126.741 29.473 128.161 44.3961 123.901 44.3961C119.641 44.3961 124.611 62.8724 135.972 62.8724C147.332 62.8724 151.592 40.843 151.592 40.843C151.592 40.843 143.782 38.0005 145.202 28.7624C146.622 19.5243 126.741 29.473 126.741 29.473Z" fill="#F5C7CE"/>
<path d="M125.61 43.2578L119.641 45.8174L103.443 52.6767C102.789 52.9533 102.243 53.4337 101.885 54.0464C101.527 54.659 101.376 55.3711 101.456 56.0764L107.571 110.484C107.571 110.484 101.181 123.986 111.121 124.697L112.541 129.671L123.901 116.169L166.502 114.748L167.212 45.8174L147.72 38.1083C147.72 38.1083 145.069 52.7788 125.61 43.2578Z" fill="#3F3D56"/>
<path d="M105.796 54.7002L103.172 53.9499C102.878 53.8658 102.57 53.8451 102.267 53.8892C101.964 53.9333 101.674 54.0411 101.416 54.2057C101.158 54.3702 100.938 54.5876 100.77 54.8436C100.602 55.0997 100.49 55.3884 100.442 55.6908L93.4795 99.4037C92.9364 102.641 93.4563 105.967 94.9613 108.883C97.1126 112.96 101.581 116.658 110.766 112.261L117.156 66.0702L105.796 54.7002Z" fill="#3F3D56"/>
<path d="M159.047 44.7515L167.567 46.1728L190.997 78.8615L193.127 84.5464L206.617 80.2827C206.617 80.2827 205.907 86.6783 213.007 85.9677C213.007 85.9677 204.487 109.418 186.737 102.312C168.987 95.2058 163.307 73.8871 163.307 73.8871L159.047 44.7515Z" fill="#3F3D56"/>
<path d="M168.987 58.9641L137.036 46.1726L135.617 50.4365L150.527 63.2276L168.987 58.9641Z" fill="#CCCCCC"/>
<path d="M127.014 20.9287C127.617 20.7676 127.706 19.9665 127.726 19.3422C127.835 15.9994 129.849 12.5694 133.051 11.5962C134.279 11.2595 135.566 11.1888 136.824 11.3887C138.62 11.6278 140.354 12.2059 141.934 13.0924C142.768 13.5609 143.586 14.1252 144.532 14.2684C145.157 14.3629 147.861 15.1488 148.484 15.2594C149.851 15.5026 151.122 16.7255 152.435 16.2704C153.69 15.8351 153.968 14.2104 153.998 12.8827C154.068 9.85769 151.77 5.67102 149.746 3.42068C148.21 1.71298 145.897 0.924677 143.637 0.514778C140.996 0.0907209 138.319 -0.0719803 135.647 0.0290382C132.029 0.0935211 128.311 0.372589 125.048 1.93701C121.786 3.50143 119.046 6.615 118.889 10.2278C118.857 10.9804 118.934 11.7361 118.871 12.4867C118.716 14.3178 117.744 15.9718 117.287 17.7519C116.961 19.058 116.912 20.418 117.144 21.7441C117.376 23.0702 117.883 24.333 118.633 25.4512C119.844 27.2318 124.686 28.8483 124.616 31C125.491 30.094 123.427 29.1819 124.302 28.2759C124.695 27.9767 124.972 27.5521 125.089 27.0731C125.205 26.594 125.154 26.0895 124.944 25.6437L124.014 22.0214C123.844 21.3582 123.677 20.6403 123.934 20.0056C124.93 17.5456 126.007 21.1973 127.014 20.9287Z" fill="#1D1D1D"/>
<path d="M135.617 50.4364L122.127 103.023L174.667 121.499L205.197 95.9162L224.367 38.356L193.127 61.0959L135.617 50.4364Z" fill="#F2F2F2"/>
<path d="M138.192 56.1333L138.011 56.8203L189.131 70.3221L189.312 69.6351L138.192 56.1333Z" fill="#E6E6E6"/>
<path d="M136.772 59.6864L136.591 60.3734L187.711 73.8753L187.892 73.1883L136.772 59.6864Z" fill="#E6E6E6"/>
<path d="M136.062 63.2395L135.881 63.9265L187.001 77.4284L187.182 76.7414L136.062 63.2395Z" fill="#E6E6E6"/>
<path d="M135.352 66.7927L135.171 67.4796L186.291 80.9815L186.472 80.2945L135.352 66.7927Z" fill="#E6E6E6"/>
<path d="M134.642 70.3458L134.461 71.0327L185.581 84.5346L185.762 83.8476L134.642 70.3458Z" fill="#E6E6E6"/>
<path d="M133.932 73.8989L133.751 74.5859L184.871 88.0877L185.052 87.4007L133.932 73.8989Z" fill="#E6E6E6"/>
<path d="M133.222 77.452L133.041 78.139L184.161 91.6409L184.342 90.9539L133.222 77.452Z" fill="#E6E6E6"/>
<path d="M132.512 81.0051L132.331 81.6921L183.451 95.194L183.632 94.507L132.512 81.0051Z" fill="#E6E6E6"/>
<path d="M131.802 84.5583L131.621 85.2452L182.741 98.7471L182.922 98.0601L131.802 84.5583Z" fill="#E6E6E6"/>
<path d="M113.968 89.1183C113.968 89.1183 129.936 79.572 137.037 85.9677C144.137 92.3633 116.446 101.601 116.446 101.601L113.968 89.1183Z" fill="#F5C7CE"/>
<path d="M96.5662 93.7845L117.156 85.9677C117.156 85.9677 113.606 99.4695 120.706 100.18L110.766 112.261C110.766 112.261 90.8862 112.261 96.5662 93.7845Z" fill="#3F3D56"/>
<path d="M150.749 93.493L178.071 102.709L171.605 116.816L144.283 107.6L150.749 93.493Z" fill="#E6E6E6"/>
<path d="M199.162 63.5831L219.752 47.9492L214.072 67.1363L192.772 82.7699L199.162 63.5831Z" fill="#CCCCCC"/>
<path d="M209.598 73.9595L189.007 89.5927L189.436 90.159L210.027 74.5258L209.598 73.9595Z" fill="#E6E6E6"/>
<path d="M208.178 81.7764L187.587 97.4095L188.016 97.9758L208.607 82.3426L208.178 81.7764Z" fill="#E6E6E6"/>
<path d="M210.877 86.6783C210.877 86.6783 228.627 76.0189 217.267 71.7552C205.907 67.4914 205.907 83.8358 205.907 83.8358C205.907 83.8358 205.197 87.3889 210.877 86.6783Z" fill="#F5C7CE"/>
<path opacity="0.1" d="M106.861 62.8724L106.151 90.5869L117.156 87.4434L108.281 87.7441L106.861 62.8724Z" fill="black"/>
<path d="M29.3859 217.963C31.6054 226.174 39.2076 231.26 39.2076 231.26C39.2076 231.26 43.2113 223.032 40.9918 214.82C38.7723 206.609 31.1701 201.523 31.1701 201.523C31.1701 201.523 27.1664 209.751 29.3859 217.963Z" fill="#A8DADC"/>
<path d="M32.6472 216.198C38.7375 222.132 39.4814 231.253 39.4814 231.253C39.4814 231.253 30.351 230.755 24.2607 224.821C18.1704 218.887 17.4265 209.765 17.4265 209.765C17.4265 209.765 26.557 210.264 32.6472 216.198Z" fill="#457B9D"/>
<path d="M239.74 138.687H228.776V149.66H239.74V138.687Z" fill="#F2F2F2"/>
<path d="M195.885 14.3229H184.921V25.2962H195.885V14.3229Z" fill="#F2F2F2"/>
<path d="M58.1076 125.519C61.1352 125.519 63.5895 123.062 63.5895 120.032C63.5895 117.002 61.1352 114.545 58.1076 114.545C55.0801 114.545 52.6258 117.002 52.6258 120.032C52.6258 123.062 55.0801 125.519 58.1076 125.519Z" fill="#F2F2F2"/>
</g>
<defs>
<clipPath id="clip0_5_22">
<rect width="292" height="244" fill="white"/>
</clipPath>
</defs>
</svg>
