<svg width="22" height="22" viewBox="0 0 22 22" fill="none" xmlns="http://www.w3.org/2000/svg">
<g clip-path="url(#clip0_12_309)">
<path d="M20.4789 8.12927L20.479 8.12923C20.7493 7.79189 20.695 7.29942 20.3577 7.02903L20.3576 7.02901L11.4895 -0.0780086C11.2035 -0.307391 10.7964 -0.307391 10.5104 -0.0780086L1.64227 7.02901L1.64225 7.02903C1.45694 7.17756 1.34902 7.4021 1.34902 7.63979V21.4673C1.34902 21.8995 1.6994 22.25 2.13173 22.25H19.8683C20.3006 22.25 20.651 21.8995 20.651 21.4673V11.444C20.651 11.0117 20.3006 10.6613 19.8683 10.6613C19.4361 10.6613 19.0856 11.0118 19.0856 11.444V20.6847H13.8692V14.977C13.8692 14.5448 13.5187 14.1943 13.0865 14.1943H8.91359C8.48137 14.1943 8.13088 14.5448 8.13088 14.977V19.701C8.13088 20.1332 8.48137 20.4837 8.91359 20.4837C9.34581 20.4837 9.6963 20.1332 9.6963 19.701V15.7597H12.3038V20.6847H2.91444V8.0156L11 1.53584L19.3787 8.25054C19.7161 8.52104 20.2087 8.46642 20.4789 8.12927Z" fill="white" stroke="white" stroke-width="0.5"/>
</g>
<defs>
<clipPath id="clip0_12_309">
<rect width="22" height="22" fill="white"/>
</clipPath>
</defs>
</svg>
