<svg width="22" height="22" viewBox="0 0 22 22" fill="none" xmlns="http://www.w3.org/2000/svg">
<g clip-path="url(#clip0_9_212)">
<path d="M20.4789 8.12925L20.479 8.12922C20.7493 7.79188 20.695 7.29941 20.3577 7.02902L20.3576 7.029L11.4895 -0.0780238C11.2035 -0.307407 10.7964 -0.307407 10.5104 -0.0780238L1.64227 7.029L1.64225 7.02901C1.45694 7.17755 1.34902 7.40208 1.34902 7.63977V21.4673C1.34902 21.8995 1.6994 22.25 2.13173 22.25H19.8683C20.3006 22.25 20.651 21.8995 20.651 21.4673V11.444C20.651 11.0116 20.3006 10.6612 19.8683 10.6612C19.4361 10.6612 19.0856 11.0117 19.0856 11.444V20.6846H13.8692V14.977C13.8692 14.5448 13.5187 14.1943 13.0865 14.1943H8.91359C8.48137 14.1943 8.13088 14.5448 8.13088 14.977V19.701C8.13088 20.1332 8.48137 20.4837 8.91359 20.4837C9.34581 20.4837 9.6963 20.1332 9.6963 19.701V15.7597H12.3038V20.6846H2.91444V8.01559L11 1.53583L19.3787 8.25053C19.7161 8.52102 20.2087 8.4664 20.4789 8.12925Z" fill="#333333" stroke="#333333" stroke-width="0.5"/>
</g>
<defs>
<clipPath id="clip0_9_212">
<rect width="22" height="22" fill="white"/>
</clipPath>
</defs>
</svg>
