<svg width="64" height="57" viewBox="0 0 64 57" fill="none" xmlns="http://www.w3.org/2000/svg">
<g clip-path="url(#clip0_82_1144)">
<path d="M63.2201 22.34C62.7309 21.8704 62.0758 21.6131 61.3978 21.6244C60.7197 21.6356 60.0735 21.9144 59.6001 22.4L56.2101 25.92C55.6921 19.5177 52.9985 13.4855 48.5773 8.82607C44.156 4.16666 38.2732 1.16068 31.9069 0.307798C25.5405 -0.545084 19.074 0.8065 13.5822 4.13789C8.09042 7.46928 3.90414 12.5798 1.71921 18.62C-0.465718 24.6602 -0.517685 31.2663 1.57195 37.3401C3.66158 43.4139 7.76694 48.5897 13.2056 52.007C18.6443 55.4244 25.0888 56.8776 31.4678 56.125C37.8468 55.3723 43.7761 52.4593 48.2701 47.87C48.7373 47.3832 48.9933 46.7316 48.9827 46.057C48.972 45.3823 48.6954 44.7392 48.2131 44.2674C47.7307 43.7956 47.0816 43.5333 46.4069 43.5376C45.7322 43.5418 45.0865 43.8122 44.6101 44.29C40.946 48.0216 36.1195 50.393 30.9266 51.0132C25.7337 51.6334 20.4845 50.4654 16.0446 47.7017C11.6047 44.938 8.2392 40.7437 6.50317 35.8104C4.76714 30.8771 4.7642 25.4995 6.49485 20.5644C8.22549 15.6292 11.5864 11.4313 16.0233 8.6627C20.4601 5.89415 25.7081 4.72035 30.9016 5.33489C36.0952 5.94943 40.9243 8.31559 44.5925 12.0432C48.2607 15.7708 50.549 20.6372 51.0801 25.84L47.8901 22.65C47.6537 22.4066 47.3712 22.2126 47.0592 22.0793C46.7471 21.946 46.4117 21.8761 46.0724 21.8736C45.733 21.8711 45.3966 21.9361 45.0826 22.0648C44.7687 22.1936 44.4834 22.3834 44.2435 22.6233C44.0035 22.8633 43.8137 23.1485 43.685 23.4625C43.5562 23.7765 43.4912 24.1129 43.4937 24.4522C43.4962 24.7916 43.5661 25.127 43.6994 25.4391C43.8327 25.7511 44.0267 26.0336 44.2701 26.27L52.0001 34C52.4801 34.4801 53.1312 34.7499 53.8101 34.75C54.1508 34.746 54.4872 34.6741 54.7998 34.5385C55.1123 34.4028 55.3946 34.2062 55.6301 33.96L63.2801 26C63.5187 25.7569 63.7066 25.4689 63.8329 25.1526C63.9592 24.8363 64.0214 24.498 64.0158 24.1574C64.0102 23.8169 63.937 23.4808 63.8004 23.1688C63.6638 22.8568 63.4666 22.5751 63.2201 22.34V22.34Z" fill="#333333"/>
</g>
<defs>
<clipPath id="clip0_82_1144">
<rect width="64" height="56.32" fill="white"/>
</clipPath>
</defs>
</svg>
