<?xml version="1.0" standalone="no"?>
<!DOCTYPE svg PUBLIC "-//W3C//DTD SVG 20010904//EN"
 "http://www.w3.org/TR/2001/REC-SVG-20010904/DTD/svg10.dtd">
<svg version="1.0" xmlns="http://www.w3.org/2000/svg"
 width="632.000000pt" height="395.000000pt" viewBox="0 0 632.000000 395.000000"
 preserveAspectRatio="xMidYMid meet">

<g transform="translate(0.000000,395.000000) scale(0.100000,-0.100000)"
fill="#000000" stroke="none">
<path d="M3104 3327 c-7 -7 -53 -52 -104 -102 -81 -79 -118 -122 -235 -269
-36 -45 -105 -152 -140 -218 l-25 -48 260 0 260 0 0 325 c0 179 -1 325 -2 325
-2 -1 -8 -6 -14 -13z"/>
<path d="M3228 3018 c-2 -178 -2 -325 -1 -327 4 -6 513 -15 513 -9 0 17 -145
258 -181 302 -5 6 -37 45 -70 86 -68 83 -176 199 -226 243 l-32 28 -3 -323z"/>
<path d="M2815 3301 c-94 -26 -257 -90 -305 -121 -8 -5 -43 -26 -77 -47 -35
-20 -63 -41 -63 -45 0 -4 -4 -8 -10 -8 -11 0 -38 -22 -129 -105 -101 -91 -232
-257 -216 -273 3 -3 109 -8 234 -10 l229 -5 33 64 c17 35 44 82 59 104 15 22
29 45 31 50 12 27 52 85 60 85 5 0 9 5 9 11 0 19 170 221 249 296 l24 23 -34
-1 c-19 -1 -61 -9 -94 -18z"/>
<path d="M3420 3315 c0 -3 8 -13 18 -23 154 -157 295 -354 388 -542 l33 -68
238 -4 c131 -2 239 -3 241 -2 5 3 -26 50 -77 119 -98 131 -262 280 -383 348
-24 13 -59 34 -78 45 -57 34 -209 93 -293 113 -87 21 -87 21 -87 14z"/>
<path d="M1200 2303 c0 -98 -3 -316 -7 -485 l-6 -308 96 0 97 0 0 338 c0 186
3 342 7 345 3 4 18 -14 33 -40 15 -27 39 -70 55 -98 15 -27 38 -68 50 -90 12
-22 31 -56 42 -75 11 -20 38 -69 61 -110 22 -41 63 -115 91 -163 28 -49 51
-92 51 -97 0 -15 31 -20 120 -20 l88 0 6 113 c3 61 7 282 9 490 l3 377 -98 0
-98 0 0 -342 c0 -342 0 -343 -20 -318 -11 14 -20 28 -20 32 0 4 -22 45 -48 90
-27 46 -58 101 -68 123 -11 22 -31 58 -45 80 -27 45 -40 68 -85 152 -17 32
-43 78 -58 103 -15 25 -29 53 -33 63 -5 15 -19 17 -114 17 l-109 0 0 -177z"/>
<path d="M2196 2409 c-3 -41 -7 -262 -10 -491 l-5 -418 182 0 c100 0 266 -3
370 -7 l187 -6 0 85 0 85 -107 6 c-58 4 -177 7 -265 7 l-158 0 0 128 0 127
240 -4 240 -3 0 79 0 80 -97 6 c-54 4 -162 7 -240 7 l-143 0 0 105 0 105 260
0 260 0 0 85 0 85 -242 0 c-134 0 -293 3 -355 7 l-111 6 -6 -74z"/>
<path d="M4670 2470 c-208 -26 -312 -127 -312 -306 0 -85 15 -130 54 -167 28
-27 144 -81 213 -100 286 -76 310 -89 310 -159 0 -60 -27 -94 -92 -113 -100
-30 -224 -12 -273 40 -12 13 -28 40 -35 62 l-13 38 -97 3 -97 3 7 -33 c37
-186 141 -270 360 -293 74 -8 210 15 268 45 134 70 181 162 162 314 -16 125
-92 177 -370 252 -124 33 -193 65 -205 95 -36 86 56 168 178 157 95 -9 158
-52 182 -123 l12 -35 95 0 95 0 -7 43 c-9 54 -40 121 -77 163 -72 81 -226 131
-358 114z"/>
<path d="M3025 2452 c4 -10 29 -102 56 -207 76 -289 180 -679 195 -731 5 -19
16 -22 96 -29 49 -3 92 -4 95 -2 9 9 39 145 127 576 20 96 38 177 41 179 2 2
6 -6 9 -19 19 -87 47 -226 59 -294 39 -208 50 -267 69 -352 l20 -93 93 0 93 0
17 58 c10 31 25 84 35 117 10 33 25 85 34 115 9 30 28 96 42 145 15 50 32 110
39 135 7 25 23 79 35 120 11 41 25 93 31 114 5 21 19 65 29 97 11 32 20 61 20
64 0 3 -45 5 -99 5 l-99 0 -19 -67 c-11 -38 -28 -104 -38 -148 -9 -44 -25
-111 -35 -150 -29 -115 -42 -167 -51 -215 -5 -25 -14 -61 -21 -80 l-11 -35
-13 55 c-12 48 -36 176 -64 335 -33 183 -49 264 -59 288 l-11 28 -102 -3 -103
-3 -16 -80 c-9 -44 -33 -161 -54 -260 -20 -99 -43 -211 -50 -250 -12 -62 -33
-131 -34 -113 -1 3 -12 62 -26 130 -23 111 -34 161 -81 378 -8 36 -19 92 -26
125 -6 33 -14 63 -17 66 -3 4 -52 9 -109 12 -94 5 -103 4 -97 -11z"/>
<path d="M1995 1261 c-10 -10 125 -193 191 -258 18 -17 63 -57 101 -88 37 -30
75 -62 83 -69 20 -17 124 -78 185 -109 96 -48 246 -99 330 -112 22 -4 49 -9
60 -12 17 -5 17 -2 -5 18 -74 69 -270 298 -270 314 0 4 -16 26 -35 49 -19 24
-35 46 -35 49 0 4 -22 44 -50 91 -27 47 -50 89 -50 94 0 26 -37 30 -263 34
-131 1 -240 1 -242 -1z"/>
<path d="M2610 1252 c0 -13 33 -73 81 -147 103 -159 266 -352 387 -459 l22
-19 0 316 0 317 -245 0 c-135 0 -245 -4 -245 -8z"/>
<path d="M3215 1249 c-3 -8 -4 -149 -3 -314 l3 -300 105 105 c119 118 190 197
190 210 0 5 6 13 13 17 11 7 43 52 137 193 9 14 24 40 34 58 l17 32 -199 0
c-110 0 -220 3 -245 6 -35 5 -48 3 -52 -7z"/>
<path d="M3824 1234 c-11 -31 -104 -184 -158 -259 -65 -91 -141 -180 -240
-283 -74 -77 -78 -83 -51 -78 17 3 48 8 70 12 93 14 185 46 320 111 190 90
349 219 480 388 93 120 94 115 -34 115 -59 0 -169 3 -244 7 -128 6 -137 5
-143 -13z"/>
</g>
</svg>
