<svg width="90" height="75" viewBox="0 0 90 75" fill="none" xmlns="http://www.w3.org/2000/svg">
<path d="M44.7862 60.8607C55.0192 56.2705 59.5796 44.2229 56.7482 37.9109C61.5059 48.5174 57.0674 60.8366 46.8345 65.4269C36.6015 70.0171 24.4492 65.14 19.6914 54.5336C22.824 61.5171 34.5533 65.4509 44.7862 60.8607Z" fill="#D0D0D0"/>
<path d="M62.5349 21.5576C52.8014 11.7589 37.9065 10.7733 32.5968 16.0477C41.519 7.18479 56.6425 7.94339 66.376 17.7421C76.1095 27.5408 76.7672 42.669 67.8449 51.5318C73.7195 45.6963 72.2684 31.3563 62.5349 21.5576Z" fill="#333333"/>
<path d="M30.8244 56.6475C41.4179 60.33 53.0021 54.6954 55.2736 48.1609C51.4567 59.1411 39.7748 65.057 29.1812 61.3745C18.5877 57.692 13.0942 45.8056 16.9111 34.8255C14.398 42.0551 20.2309 52.965 30.8244 56.6475Z" fill="#FFD643"/>
<path d="M30.8244 56.6475C41.4179 60.33 53.0021 54.6954 55.2736 48.1609C51.4567 59.1411 39.7747 65.057 29.1812 61.3745C18.5877 57.692 13.0942 45.8056 16.9111 34.8255C14.398 42.0551 20.2309 52.965 30.8244 56.6475Z" fill="#EEEEEE"/>
<path d="M66.5866 34.1585C61.9162 21.1607 47.5539 14.4241 39.5365 17.305C53.0087 12.4642 67.7161 19.0767 72.3865 32.0745C77.0568 45.0723 69.9215 59.5334 56.4493 64.3742C65.3197 61.1869 71.257 47.1564 66.5866 34.1585Z" fill="#7C7C7C"/>
<path d="M61.0163 49.1812C65.0434 35.9699 57.5582 21.9832 49.4091 19.4991C63.1025 23.6732 70.9385 37.7669 66.9114 50.9782C62.8842 64.1894 48.5188 71.5154 34.8254 67.3413C43.8414 70.0896 56.9891 62.3924 61.0163 49.1812Z" fill="#B7B7B7"/>
<circle cx="38.111" cy="36.5237" r="17.5237" fill="white"/>
<path d="M4.05 42.165C2.94 42.165 2.06 41.86 1.41 41.25C0.77 40.64 0.45 39.81 0.45 38.76H2.325C2.325 39.31 2.475 39.74 2.775 40.05C3.085 40.36 3.51 40.515 4.05 40.515C4.58 40.515 5 40.365 5.31 40.065C5.62 39.755 5.775 39.325 5.775 38.775V32.79H2.7V31.05H7.65V38.775C7.65 39.825 7.325 40.655 6.675 41.265C6.035 41.865 5.16 42.165 4.05 42.165ZM15.5941 42.15C14.5441 42.15 13.7091 41.86 13.0891 41.28C12.4791 40.69 12.1741 39.9 12.1741 38.91V34.14C12.1741 33.15 12.4791 32.365 13.0891 31.785C13.7091 31.195 14.5441 30.9 15.5941 30.9C16.6441 30.9 17.4741 31.195 18.0841 31.785C18.7041 32.365 19.0141 33.145 19.0141 34.125V38.91C19.0141 39.9 18.7041 40.69 18.0841 41.28C17.4741 41.86 16.6441 42.15 15.5941 42.15ZM15.5941 40.5C16.1041 40.5 16.4891 40.365 16.7491 40.095C17.0091 39.815 17.1391 39.42 17.1391 38.91V34.14C17.1391 33.63 17.0091 33.24 16.7491 32.97C16.4891 32.69 16.1041 32.55 15.5941 32.55C15.0841 32.55 14.6991 32.69 14.4391 32.97C14.1791 33.24 14.0491 33.63 14.0491 34.14V38.91C14.0491 39.42 14.1791 39.815 14.4391 40.095C14.6991 40.365 15.0841 40.5 15.5941 40.5ZM60.0307 42.15C59.3207 42.15 58.7057 42.02 58.1857 41.76C57.6657 41.49 57.2607 41.115 56.9707 40.635C56.6907 40.145 56.5507 39.57 56.5507 38.91V34.14C56.5507 33.48 56.6907 32.91 56.9707 32.43C57.2607 31.94 57.6657 31.565 58.1857 31.305C58.7057 31.035 59.3207 30.9 60.0307 30.9C60.7307 30.9 61.3407 31.035 61.8607 31.305C62.3807 31.565 62.7857 31.94 63.0757 32.43C63.3657 32.91 63.5107 33.48 63.5107 34.14H61.6207C61.6207 33.63 61.4807 33.24 61.2007 32.97C60.9307 32.69 60.5407 32.55 60.0307 32.55C59.5207 32.55 59.1257 32.685 58.8457 32.955C58.5657 33.225 58.4257 33.615 58.4257 34.125V38.91C58.4257 39.42 58.5657 39.815 58.8457 40.095C59.1257 40.375 59.5207 40.515 60.0307 40.515C60.5407 40.515 60.9307 40.375 61.2007 40.095C61.4807 39.815 61.6207 39.42 61.6207 38.91V37.8H59.7607V36.18H63.5107V38.91C63.5107 39.57 63.3657 40.145 63.0757 40.635C62.7857 41.115 62.3807 41.49 61.8607 41.76C61.3407 42.02 60.7307 42.15 60.0307 42.15ZM68.1098 42V31.05H69.9848V40.26H74.6348V42H68.1098ZM81.214 42V38.025L78.004 31.05H79.969L81.679 34.845C81.809 35.145 81.919 35.44 82.009 35.73C82.099 36.02 82.159 36.245 82.189 36.405C82.229 36.245 82.289 36.02 82.369 35.73C82.459 35.44 82.569 35.145 82.699 34.845L84.364 31.05H86.314L83.104 38.025V42H81.214Z" fill="white"/>
<path d="M23.3433 42V31.05H25.2183V35.445H28.1583V31.05H30.0333V42H28.1583V37.185H25.2183V42H23.3433ZM33.8074 42L36.5674 31.05H38.9824L41.7574 42H39.8374L39.2374 39.345H36.3274L35.7274 42H33.8074ZM36.6724 37.815H38.8924L38.2324 34.875C38.1224 34.385 38.0274 33.945 37.9474 33.555C37.8674 33.155 37.8124 32.865 37.7824 32.685C37.7524 32.865 37.6974 33.155 37.6174 33.555C37.5374 33.945 37.4424 34.38 37.3324 34.86L36.6724 37.815ZM45.4566 42V31.05H47.7516L50.7966 39.9C50.7666 39.58 50.7366 39.205 50.7066 38.775C50.6766 38.335 50.6466 37.89 50.6166 37.44C50.5966 36.99 50.5866 36.59 50.5866 36.24V31.05H52.2966V42H50.0016L46.9866 33.15C47.0066 33.44 47.0316 33.79 47.0616 34.2C47.0916 34.61 47.1166 35.03 47.1366 35.46C47.1566 35.89 47.1666 36.285 47.1666 36.645V42H45.4566Z" fill="#333333"/>
</svg>
