<svg width="100" height="66" viewBox="0 0 100 66" fill="none" xmlns="http://www.w3.org/2000/svg">
<path d="M48.6296 0.335554C48.452 0.503296 47.2851 1.58164 45.9914 2.77979C43.9366 4.67288 42.998 5.70329 40.03 9.22587C39.1168 10.3042 37.3664 12.8683 36.4785 14.4498L35.8444 15.6001H42.4399H49.0355V7.81205C49.0355 3.52265 49.0101 0.0240332 48.9848 0.0240332C48.934 0.0479963 48.7818 0.167812 48.6296 0.335554Z" fill="#E63946"/>
<path d="M51.7752 7.74008C51.7244 12.0055 51.7244 15.5281 51.7498 15.576C51.8513 15.7198 64.7634 15.9355 64.7634 15.7917C64.7634 15.3843 61.0851 9.60921 60.1718 8.55483C60.045 8.41105 59.2332 7.47649 58.3961 6.494C56.6711 4.50506 53.9314 1.72534 52.663 0.67096L51.8513 -7.82472e-06L51.7752 7.74008Z" fill="#E63946"/>
<path d="M41.2985 0.958543C38.9139 1.58158 34.779 3.11522 33.5614 3.85808C33.3584 3.9779 32.4706 4.48112 31.6081 4.98435C30.7202 5.46361 30.0099 5.96684 30.0099 6.06269C30.0099 6.15854 29.9084 6.2544 29.7562 6.2544C29.4772 6.2544 28.7923 6.78158 26.4838 8.77052C23.9217 10.9512 20.5985 14.929 21.0044 15.3125C21.0805 15.3843 23.7695 15.5042 26.9404 15.5521L32.7496 15.6719L33.5867 14.1383C34.018 13.2996 34.7029 12.1733 35.0834 11.6461C35.4639 11.1189 35.8191 10.5678 35.8698 10.4479C36.1742 9.80094 37.1889 8.41108 37.3919 8.41108C37.5187 8.41108 37.6202 8.29126 37.6202 8.14748C37.6202 7.69218 41.9327 2.85163 43.9367 1.0544L44.5455 0.503244L43.683 0.527207C43.201 0.55117 42.1356 0.742875 41.2985 0.958543Z" fill="#E63946"/>
<path d="M56.6458 0.623043C56.6458 0.694932 56.8487 0.934564 57.1024 1.1742C61.009 4.93641 64.5858 9.65714 66.945 14.1622L67.7821 15.7917L73.8196 15.8876C77.1427 15.9355 79.8824 15.9594 79.9332 15.9355C80.06 15.8636 79.2736 14.7373 77.9799 13.0839C75.4939 9.9447 71.3336 6.3742 68.2641 4.7447C67.6553 4.43318 66.7674 3.92996 66.2854 3.66636C64.8395 2.85161 60.9836 1.43779 58.8527 0.958527C56.6458 0.455301 56.6458 0.455301 56.6458 0.623043Z" fill="#E63946"/>
<path d="M0.329778 24.8738C0.329778 27.2222 0.253676 32.4461 0.152205 36.4959L0 43.8765H2.43529H4.89594V35.777C4.89594 31.3199 4.97204 27.5816 5.07351 27.5097C5.14962 27.4139 5.53013 27.8452 5.91064 28.4683C6.29116 29.1153 6.89998 30.1457 7.30586 30.8166C7.68637 31.4636 8.26983 32.4461 8.57424 32.9733C8.87865 33.5005 9.36063 34.3153 9.63968 34.7706C9.91872 35.2498 10.6036 36.424 11.1871 37.4065C11.7452 38.389 12.7853 40.1623 13.4955 41.3125C14.2058 42.4867 14.7893 43.5171 14.7893 43.6369C14.7893 43.9964 15.5757 44.1162 17.8334 44.1162H20.0657L20.218 41.4083C20.2941 39.9466 20.3955 34.6507 20.4463 29.6664L20.5224 20.6323H18.0363H15.5503V28.8277C15.5503 37.0231 15.5503 37.0471 15.043 36.448C14.7639 36.1125 14.5356 35.777 14.5356 35.6812C14.5356 35.5853 13.9775 34.6028 13.318 33.5245C12.633 32.4222 11.8467 31.1042 11.593 30.577C11.3139 30.0498 10.8066 29.1871 10.4514 28.66C9.76651 27.5816 9.43674 27.0305 8.2952 25.0176C7.86395 24.2507 7.20439 23.1484 6.82388 22.5494C6.44336 21.9503 6.08822 21.2793 5.98675 21.0397C5.85991 20.6802 5.50476 20.6323 3.09484 20.6323H0.329778V24.8738Z" fill="#E63946"/>
<path d="M25.5958 22.3337C25.5197 23.3162 25.4182 28.612 25.3421 34.0996L25.2153 44.1162H29.8322C32.3689 44.1162 36.5799 44.1881 39.2182 44.2839L43.9619 44.4277V42.3908V40.354L41.2476 40.2102C39.7763 40.1143 36.7575 40.0425 34.5252 40.0425H30.5171V36.9752V33.9319L36.6053 34.0277L42.6935 34.0996V32.2065V30.2895L40.2329 30.1457C38.863 30.0498 36.1233 29.9779 34.1447 29.9779H30.5171V27.4618V24.9457H37.1127H43.7082V22.9088V20.8719H37.5693C34.17 20.8719 30.1366 20.8001 28.5638 20.7042L25.748 20.5604L25.5958 22.3337Z" fill="#E63946"/>
<path d="M88.3553 20.8719C83.0788 21.495 80.4406 23.9152 80.4406 28.2046C80.4406 30.2415 80.8211 31.3198 81.8104 32.2065C82.5207 32.8535 85.4634 34.1475 87.2137 34.6028C94.4689 36.424 95.0777 36.7355 95.0777 38.4129C95.0777 39.8507 94.3928 40.6655 92.7439 41.1208C90.2071 41.8397 87.0615 41.4083 85.8185 40.1622C85.5141 39.8507 85.1082 39.2037 84.9307 38.6765L84.6009 37.7659L82.1402 37.694L79.6796 37.6221L79.8571 38.4129C80.7957 42.8701 83.434 44.883 88.9895 45.4341C90.8667 45.6258 94.3167 45.0747 95.788 44.3558C99.1872 42.6784 100.38 40.4738 99.8975 36.8314C99.4916 33.836 97.5637 32.5899 90.5115 30.7926C87.3659 30.0019 85.6156 29.235 85.3112 28.5162C84.3979 26.4553 86.7317 24.4903 89.8266 24.7539C92.2365 24.9696 93.8347 26 94.4435 27.7014L94.7479 28.5401H97.1578H99.5677L99.3902 27.5097C99.1619 26.2157 98.3755 24.6102 97.4369 23.6037C95.6104 21.6627 91.7038 20.4645 88.3553 20.8719Z" fill="#E63946"/>
<path d="M46.6256 21.3032C46.727 21.5429 47.3612 23.7475 48.0461 26.2636C49.9741 33.1889 52.6123 42.5346 52.9928 43.7807C53.1197 44.236 53.3987 44.3078 55.4281 44.4756C56.6711 44.5475 57.7619 44.5714 57.838 44.5235C58.0663 44.3078 58.8274 41.0489 61.0597 30.7207C61.5671 28.4203 62.0237 26.4793 62.0998 26.4313C62.1505 26.3834 62.252 26.5751 62.3281 26.8866C62.8101 28.9714 63.5204 32.3023 63.8248 33.9318C64.8141 38.9161 65.0932 40.33 65.5751 42.3668L66.0825 44.5954H68.4417H70.8009L71.2321 43.2055C71.4858 42.4627 71.8663 41.1926 72.12 40.4018C72.3736 39.6111 72.7542 38.365 72.9825 37.6461C73.2108 36.9272 73.6928 35.3456 74.0479 34.1714C74.4284 32.9733 74.8597 31.5355 75.0372 30.9364C75.2148 30.3373 75.6207 29.0433 75.9251 28.0608C76.2041 27.0783 76.5593 25.8323 76.7115 25.329C76.8383 24.8258 77.1935 23.7714 77.4472 23.0046C77.7262 22.2378 77.9545 21.5429 77.9545 21.471C77.9545 21.3991 76.813 21.3512 75.4431 21.3512H72.9317L72.4497 22.9567C72.1707 23.8673 71.7395 25.4489 71.4858 26.5032C71.2575 27.5576 70.8516 29.1631 70.5979 30.0977C69.8623 32.8535 69.5325 34.0995 69.3042 35.2498C69.1773 35.8489 68.949 36.7115 68.7715 37.1668L68.4924 38.0055L68.1626 36.6876C67.8582 35.5373 67.2494 32.4701 66.5391 28.6599C65.702 24.2747 65.2961 22.3336 65.0424 21.7585L64.7634 21.0876L62.1759 21.1595L59.563 21.2313L59.1571 23.1484C58.9288 24.2028 58.32 27.0065 57.7873 29.3788C57.2799 31.7512 56.6965 34.435 56.5189 35.3696C56.2145 36.8553 55.6818 38.5088 55.6564 38.0774C55.6311 38.0055 55.352 36.5917 54.9969 34.9622C54.4134 32.3023 54.1344 31.1042 52.9421 25.9042C52.7391 25.0415 52.4601 23.6995 52.2825 22.9088C52.1303 22.118 51.9274 21.3991 51.8513 21.3272C51.7752 21.2313 50.5322 21.1115 49.0862 21.0396C46.7017 20.9198 46.4734 20.9438 46.6256 21.3032Z" fill="#E63946"/>
<path d="M20.4969 49.8433C20.2433 50.083 23.6679 54.4682 25.3421 56.0258C25.7988 56.4332 26.9403 57.3917 27.9043 58.1346C28.8429 58.8535 29.8068 59.6203 30.0098 59.788C30.5171 60.1954 33.1554 61.6572 34.7028 62.4C37.1381 63.5503 40.9432 64.7724 43.0741 65.0839C43.6322 65.1797 44.3171 65.2996 44.5961 65.3715C45.0274 65.4913 45.0274 65.4194 44.4693 64.9401C42.5921 63.2867 37.62 57.7991 37.62 57.4157C37.62 57.3198 37.2142 56.7927 36.7322 56.2415C36.2502 55.6664 35.8443 55.1392 35.8443 55.0673C35.8443 54.9715 35.2862 54.0129 34.5759 52.8867C33.891 51.7604 33.3076 50.7539 33.3076 50.6341C33.3076 50.0111 32.369 49.9152 26.6359 49.8194C23.3127 49.7954 20.5477 49.7954 20.4969 49.8433Z" fill="#E63946"/>
<path d="M36.0981 50.059C36.0981 50.3705 36.9352 51.8083 38.1529 53.5816C40.7657 57.3917 44.9006 62.0166 47.9701 64.5807L48.5282 65.036V57.4636V49.8673H42.3131C38.8885 49.8673 36.0981 49.9632 36.0981 50.059Z" fill="#E63946"/>
<path d="M51.4454 50.1309C51.3693 50.3226 51.3439 53.7014 51.3693 57.6553L51.4454 64.8442L54.109 62.3281C57.1278 59.5005 58.9289 57.6074 58.9289 57.2959C58.9289 57.176 59.0811 56.9843 59.2586 56.8885C59.5377 56.7207 60.3494 55.6424 62.734 52.2636C62.9623 51.9281 63.3428 51.3051 63.5965 50.8737L64.0277 50.1069H58.9796C56.1892 50.1069 53.3987 50.035 52.7645 49.9631C51.8767 49.8433 51.5469 49.8912 51.4454 50.1309Z" fill="#E63946"/>
<path d="M66.8943 50.4904C66.6153 51.2332 64.2561 54.8996 62.8862 56.6968C61.2373 58.8774 59.3094 61.0102 56.798 63.4784C54.9208 65.3235 54.8193 65.4673 55.5043 65.3475C55.9355 65.2756 56.7219 65.1558 57.28 65.0599C59.6392 64.7245 61.973 63.9576 65.3976 62.4C70.2175 60.2433 74.2509 57.1521 77.574 53.1023C79.9332 50.2268 79.9586 50.3466 76.7115 50.3466C75.2149 50.3466 72.4244 50.2747 70.5219 50.1788C67.2748 50.0351 67.0465 50.059 66.8943 50.4904Z" fill="#E63946"/>
</svg>
